<svg width="12" height="12" viewBox="0 0 12 12" fill="none" xmlns="http://www.w3.org/2000/svg">
<path d="M8.87566 0.931035C8.77945 0.459517 8.36172 0.103449 7.86207 0.103449C7.74766 0.103449 7.65517 0.195931 7.65517 0.310345C7.65517 0.424759 7.74766 0.517242 7.86207 0.517242C8.20428 0.517242 8.48276 0.795724 8.48276 1.13793C8.48276 1.48014 8.20428 1.75862 7.86207 1.75862C7.74766 1.75862 7.65517 1.8511 7.65517 1.96552C7.65517 2.07993 7.74766 2.17241 7.86207 2.17241C8.36152 2.17241 8.77945 1.81635 8.87566 1.34483H11.5862V3.2069H0.413793V1.34483H3.31034H3.93103C4.04545 1.34483 4.13793 1.25235 4.13793 1.13793C4.13793 1.02352 4.04545 0.931035 3.93103 0.931035H3.55531C3.64097 0.690621 3.86855 0.517242 4.13793 0.517242C4.48014 0.517242 4.75862 0.795724 4.75862 1.13793C4.75862 1.48014 4.48014 1.75862 4.13793 1.75862C4.02352 1.75862 3.93103 1.8511 3.93103 1.96552C3.93103 2.07993 4.02352 2.17241 4.13793 2.17241C4.70834 2.17241 5.17241 1.70835 5.17241 1.13793C5.17241 0.567517 4.70834 0.103449 4.13793 0.103449C3.63848 0.103449 3.22055 0.459517 3.12434 0.931035H0V3.62069V11.8966H12V3.62069V0.931035H8.87566ZM11.5862 11.4828H0.413793V3.62069H11.5862V11.4828Z" fill="black"/>
<path d="M5.37932 0.517242C5.72153 0.517242 6.00001 0.795724 6.00001 1.13793C6.00001 1.48014 5.72153 1.75862 5.37932 1.75862C5.26491 1.75862 5.17242 1.8511 5.17242 1.96552C5.17242 2.07993 5.26491 2.17241 5.37932 2.17241C5.94973 2.17241 6.4138 1.70834 6.4138 1.13793C6.4138 0.567517 5.94973 0.103449 5.37932 0.103449C5.26491 0.103449 5.17242 0.195931 5.17242 0.310345C5.17242 0.424759 5.26491 0.517242 5.37932 0.517242Z" fill="black"/>
<path d="M6.62068 0.517242C6.96289 0.517242 7.24137 0.795724 7.24137 1.13793C7.24137 1.48014 6.96289 1.75862 6.62068 1.75862C6.50627 1.75862 6.41379 1.8511 6.41379 1.96552C6.41379 2.07993 6.50627 2.17241 6.62068 2.17241C7.1911 2.17241 7.65517 1.70834 7.65517 1.13793C7.65517 0.567517 7.1911 0.103449 6.62068 0.103449C6.50627 0.103449 6.41379 0.195931 6.41379 0.310345C6.41379 0.424759 6.50627 0.517242 6.62068 0.517242Z" fill="black"/>
<path d="M4.55171 5.27586C4.66598 5.27586 4.75861 5.18323 4.75861 5.06897C4.75861 4.9547 4.66598 4.86207 4.55171 4.86207C4.43745 4.86207 4.34482 4.9547 4.34482 5.06897C4.34482 5.18323 4.43745 5.27586 4.55171 5.27586Z" fill="black"/>
<path d="M5.99999 5.27586C6.11425 5.27586 6.20688 5.18323 6.20688 5.06897C6.20688 4.9547 6.11425 4.86207 5.99999 4.86207C5.88572 4.86207 5.79309 4.9547 5.79309 5.06897C5.79309 5.18323 5.88572 5.27586 5.99999 5.27586Z" fill="black"/>
<path d="M7.44829 5.27586C7.56256 5.27586 7.65519 5.18323 7.65519 5.06897C7.65519 4.9547 7.56256 4.86207 7.44829 4.86207C7.33402 4.86207 7.24139 4.9547 7.24139 5.06897C7.24139 5.18323 7.33402 5.27586 7.44829 5.27586Z" fill="black"/>
<path d="M8.89656 5.27586C9.01083 5.27586 9.10346 5.18323 9.10346 5.06897C9.10346 4.9547 9.01083 4.86207 8.89656 4.86207C8.7823 4.86207 8.68967 4.9547 8.68967 5.06897C8.68967 5.18323 8.7823 5.27586 8.89656 5.27586Z" fill="black"/>
<path d="M10.3448 5.27586C10.4591 5.27586 10.5517 5.18323 10.5517 5.06897C10.5517 4.9547 10.4591 4.86207 10.3448 4.86207C10.2306 4.86207 10.1379 4.9547 10.1379 5.06897C10.1379 5.18323 10.2306 5.27586 10.3448 5.27586Z" fill="black"/>
<path d="M1.65517 6.93103C1.76944 6.93103 1.86207 6.8384 1.86207 6.72414C1.86207 6.60987 1.76944 6.51724 1.65517 6.51724C1.5409 6.51724 1.44827 6.60987 1.44827 6.72414C1.44827 6.8384 1.5409 6.93103 1.65517 6.93103Z" fill="black"/>
<path d="M3.10344 6.93103C3.21771 6.93103 3.31034 6.8384 3.31034 6.72414C3.31034 6.60987 3.21771 6.51724 3.10344 6.51724C2.98918 6.51724 2.89655 6.60987 2.89655 6.72414C2.89655 6.8384 2.98918 6.93103 3.10344 6.93103Z" fill="black"/>
<path d="M4.55171 6.93103C4.66598 6.93103 4.75861 6.8384 4.75861 6.72414C4.75861 6.60987 4.66598 6.51724 4.55171 6.51724C4.43745 6.51724 4.34482 6.60987 4.34482 6.72414C4.34482 6.8384 4.43745 6.93103 4.55171 6.93103Z" fill="black"/>
<path d="M5.99999 6.93103C6.11425 6.93103 6.20688 6.8384 6.20688 6.72414C6.20688 6.60987 6.11425 6.51724 5.99999 6.51724C5.88572 6.51724 5.79309 6.60987 5.79309 6.72414C5.79309 6.8384 5.88572 6.93103 5.99999 6.93103Z" fill="black"/>
<path d="M7.44829 6.93103C7.56256 6.93103 7.65519 6.8384 7.65519 6.72414C7.65519 6.60987 7.56256 6.51724 7.44829 6.51724C7.33402 6.51724 7.24139 6.60987 7.24139 6.72414C7.24139 6.8384 7.33402 6.93103 7.44829 6.93103Z" fill="black"/>
<path d="M8.89656 6.93103C9.01083 6.93103 9.10346 6.8384 9.10346 6.72414C9.10346 6.60987 9.01083 6.51724 8.89656 6.51724C8.7823 6.51724 8.68967 6.60987 8.68967 6.72414C8.68967 6.8384 8.7823 6.93103 8.89656 6.93103Z" fill="black"/>
<path d="M10.3448 6.93103C10.4591 6.93103 10.5517 6.8384 10.5517 6.72414C10.5517 6.60987 10.4591 6.51724 10.3448 6.51724C10.2306 6.51724 10.1379 6.60987 10.1379 6.72414C10.1379 6.8384 10.2306 6.93103 10.3448 6.93103Z" fill="black"/>
<path d="M1.65517 8.37931C1.76944 8.37931 1.86207 8.28668 1.86207 8.17241C1.86207 8.05815 1.76944 7.96552 1.65517 7.96552C1.5409 7.96552 1.44827 8.05815 1.44827 8.17241C1.44827 8.28668 1.5409 8.37931 1.65517 8.37931Z" fill="black"/>
<path d="M3.10344 8.37931C3.21771 8.37931 3.31034 8.28668 3.31034 8.17241C3.31034 8.05815 3.21771 7.96552 3.10344 7.96552C2.98918 7.96552 2.89655 8.05815 2.89655 8.17241C2.89655 8.28668 2.98918 8.37931 3.10344 8.37931Z" fill="black"/>
<path d="M4.55171 8.37931C4.66598 8.37931 4.75861 8.28668 4.75861 8.17241C4.75861 8.05815 4.66598 7.96552 4.55171 7.96552C4.43745 7.96552 4.34482 8.05815 4.34482 8.17241C4.34482 8.28668 4.43745 8.37931 4.55171 8.37931Z" fill="black"/>
<path d="M5.99999 8.37931C6.11425 8.37931 6.20688 8.28668 6.20688 8.17241C6.20688 8.05815 6.11425 7.96552 5.99999 7.96552C5.88572 7.96552 5.79309 8.05815 5.79309 8.17241C5.79309 8.28668 5.88572 8.37931 5.99999 8.37931Z" fill="black"/>
<path d="M7.44829 8.37931C7.56256 8.37931 7.65519 8.28668 7.65519 8.17241C7.65519 8.05815 7.56256 7.96552 7.44829 7.96552C7.33402 7.96552 7.24139 8.05815 7.24139 8.17241C7.24139 8.28668 7.33402 8.37931 7.44829 8.37931Z" fill="black"/>
<path d="M8.89656 8.37931C9.01083 8.37931 9.10346 8.28668 9.10346 8.17241C9.10346 8.05815 9.01083 7.96552 8.89656 7.96552C8.7823 7.96552 8.68967 8.05815 8.68967 8.17241C8.68967 8.28668 8.7823 8.37931 8.89656 8.37931Z" fill="black"/>
<path d="M10.3448 8.37931C10.4591 8.37931 10.5517 8.28668 10.5517 8.17241C10.5517 8.05815 10.4591 7.96552 10.3448 7.96552C10.2306 7.96552 10.1379 8.05815 10.1379 8.17241C10.1379 8.28668 10.2306 8.37931 10.3448 8.37931Z" fill="black"/>
<path d="M1.65517 10.0345C1.76944 10.0345 1.86207 9.94185 1.86207 9.82759C1.86207 9.71332 1.76944 9.62069 1.65517 9.62069C1.5409 9.62069 1.44827 9.71332 1.44827 9.82759C1.44827 9.94185 1.5409 10.0345 1.65517 10.0345Z" fill="black"/>
<path d="M3.10344 10.0345C3.21771 10.0345 3.31034 9.94185 3.31034 9.82759C3.31034 9.71332 3.21771 9.62069 3.10344 9.62069C2.98918 9.62069 2.89655 9.71332 2.89655 9.82759C2.89655 9.94185 2.98918 10.0345 3.10344 10.0345Z" fill="black"/>
<path d="M4.55171 10.0345C4.66598 10.0345 4.75861 9.94185 4.75861 9.82759C4.75861 9.71332 4.66598 9.62069 4.55171 9.62069C4.43745 9.62069 4.34482 9.71332 4.34482 9.82759C4.34482 9.94185 4.43745 10.0345 4.55171 10.0345Z" fill="black"/>
<path d="M5.99999 10.0345C6.11425 10.0345 6.20688 9.94185 6.20688 9.82759C6.20688 9.71332 6.11425 9.62069 5.99999 9.62069C5.88572 9.62069 5.79309 9.71332 5.79309 9.82759C5.79309 9.94185 5.88572 10.0345 5.99999 10.0345Z" fill="black"/>
<path d="M7.44829 10.0345C7.56256 10.0345 7.65519 9.94185 7.65519 9.82759C7.65519 9.71332 7.56256 9.62069 7.44829 9.62069C7.33402 9.62069 7.24139 9.71332 7.24139 9.82759C7.24139 9.94185 7.33402 10.0345 7.44829 10.0345Z" fill="black"/>
</svg>
